<?xml version="1.0" encoding="UTF-8"?>
<svg id="_Слой_1" data-name="Слой 1" xmlns="http://www.w3.org/2000/svg" viewBox="0 0 425.2 425.2">
  <defs>
    <style>
      .cls-1 {
        fill: currentColor;
      }
    </style>
  </defs>
  <path class="cls-1" d="M299.66,189.37c-.82.06-5.09.46-5.41.82-6.84,30.67-28.01,58.87-56.07,73.12,19.43-1.46,36.29-14.59,50.99-26.4,8.88-7.14,17.71-16.67,26.56-23.28.06-.05,1.61-1.32,1.48-.49-23.98,20.66-47.43,50.38-81.16,53.29-.32.16.23.62.33.66,1.23.4,13.57.12,15.74,0,42.9-2.45,78.61-30.19,92.96-70.34-13.67-5.13-30.75-8.52-45.42-7.38Z"/>
  <path class="cls-1" d="M186.53,267.08l-16.72-4.92c-23.26-11.08-41.28-30.05-59.84-47.38,23.5,18.03,45.57,45.06,76.73,48.53-27.73-14.76-49.55-42.15-56.07-73.12-.76-.96-14.77-.92-16.89-.82-11.42.55-22.83,3.47-33.61,7.05,14.42,44.9,59.34,74.09,106.41,70.66Z"/>
  <path class="cls-1" d="M204.73,269.22c-22.59,3.81-46.41,3.25-67.71-5.74-12.59,8.36-19.88,22.18-23.45,36.56,25.61,3.47,59.7,14.47,81.49-4.75,7.53-6.64,12.99-17.34,15.08-26.89-19.75,15.18-46.19,15.6-68.86,24.27,20.35-9.81,44.56-10.49,63.45-23.45Z"/>
  <path class="cls-1" d="M293.76,267.41c-.94-.79-4.91-3.95-5.9-3.93-1.01.02-9.64,3.71-11.8,4.26-18,4.61-37.02,4.71-55.25,1.48,19.92,13.23,45.17,13.97,66.4,24.43-23.36-9.56-50.98-9.48-71.48-25.25,1.96,9.97,7.78,20.87,15.74,27.54,21.92,18.36,55.15,7.48,80.5,4.1-2.64-11.9-8.71-24.69-18.2-32.63Z"/>
  <path class="cls-1" d="M149.8,188.71c-2.29,34.23,21.11,72.12,57.55,74.93-18.99-10.9-33.72-30.49-41.81-50.66,10.21,20.82,25.31,40.06,46.24,50.83,1.25-17.57-1.58-37.54-13.28-51.32-11.84-13.94-31.32-20.32-48.69-23.77Z"/>
  <path class="cls-1" d="M260.97,211.34c-8.66,20.84-22.64,40.92-42.46,52.3,35.98-3.04,58.78-41.2,56.56-74.93-17.35,3.7-36.37,10.03-48.04,24.1-11.51,13.88-14.03,33.12-13.28,50.66,21.97-10.08,36.62-31.14,47.22-52.14Z"/>
  <path class="cls-1" d="M271.79,184.12c1.29-.25,8.39-1.54,8.69-.82.88,15.14-1.88,30.01-8.03,43.78,16.92-23.32,24.91-54.27,17.71-82.63-.55-.02-1.1.03-1.64,0-2.31-.11-9.17,1.15-11.8,1.64-9.58,1.79-19.62,5.47-28.36,9.67,4.71,10.31,8.43,21.15,8.69,32.63,4.84-1.5,9.77-3.3,14.76-4.26Z"/>
  <path class="cls-1" d="M145.21,182.81c7.58,1.03,15.02,2.92,22.3,5.25.82-11.38,4.19-22.07,9.02-32.3-13-6.44-27.31-10.16-41.81-11.31-6.94,28.46.49,59.38,17.71,82.63-6.08-13.69-9.54-29.41-7.21-44.27Z"/>
  <path class="cls-1" d="M241.45,153.79c-7.59-13.18-16.92-25.95-29.35-34.92-11.69,9.8-21.74,21.65-28.69,35.25l16.23,11.97,12.79-11.48,12.79,11.48,16.23-12.3Z"/>
  <path class="cls-1" d="M246.54,192.98c5.13-2.98,5.91-.85,5.74-7.38-.24-9-4.28-19.82-8.36-27.71l-15.58,11.31,18.2,23.77Z"/>
  <path class="cls-1" d="M172.76,190.35c.47.46,4.79,1.31,5.57,2.3l17.87-23.12-15.25-11.64c-3.61,3.61-10.74,29.95-8.2,32.46Z"/>
</svg>