<?xml version="1.0" encoding="UTF-8"?>
<svg id="_Слой_1" data-name="Слой 1" xmlns="http://www.w3.org/2000/svg" viewBox="0 0 708.66 283.46">
  <defs>
    <style>
      .cls-1 {
        fill: currentColor;
      }
    </style>
  </defs>
  <path class="cls-1" d="M145.95,157.85l-13.96-21.31c-4.53-6.79-12.64-10.94-21.12-10.94-6.79,0-13.96,2.45-19.99,8.3l61.67-89.02h-33.76v.19c7.73,5.85,19.05,16.97.19,43.94l-35.83,51.68V44.88h-33.19v.19c6.98,3.58,8.11,11.69,8.11,18.86v112.97h25.08v-31.68l1.7-2.45c2.83-3.96,7.17-6.41,11.69-6.41s9.62,2.45,13.39,8.49l20.75,32.06h35.64v-.19c-9.24-3.58-15.65-11.69-20.37-18.86Z"/>
  <path class="cls-1" d="M236.84,112.77c13.77-11.88,25.46-24.71,25.46-39.42,0-17.35-16.22-28.48-54.13-28.48h-45.83v.19c6.98,3.58,8.11,11.69,8.11,18.86v112.97h53.94c67.33,0,64.69-61.67,12.45-64.12ZM195.54,47.33h7.17c23.01,0,32.82,13.39,32.82,26.78,0,32.82-33,53.56-39.98,74.87V47.33ZM218.93,174.44h-23.39v-16.41c0-13.2,19.8-26.97,37.91-42.25,23.2,6.6,23.39,58.65-14.52,58.65Z"/>
  <path class="cls-1" d="M310.2,176.89V44.88h-33.19v.19c6.98,3.58,8.11,11.69,8.11,18.86v112.97h25.08Z"/>
  <path class="cls-1" d="M607.41,44.88h-33.18v.18c4.34,1.9,7.73,5.29,10.18,9.06l-19.06,53.46c-19.36,4.66-36.53,20.8-45.96,40.82l-7.77-11.86c-4.53-6.79-12.64-10.94-21.13-10.94-6.79,0-13.95,2.45-19.99,8.3l61.68-89.01h-33.76v.18c7.73,5.86,19.05,16.98.19,43.95l-35.84,51.68V44.88h-32.43s-114.86,0-114.86,0v29.04h.19c6.79-10.18,19.05-26.59,44.7-26.59v129.57h25.08V47.33c25.65,0,37.91,16.41,44.7,26.59h.19v-28.42c6.29,3.78,7.35,11.53,7.35,18.42v112.97h25.08v-31.68l1.7-2.45c2.83-3.96,7.16-6.41,11.69-6.41s9.62,2.45,13.38,8.49l20.75,32.06h62.6v-.19c-9.81-5.85-19.61-23.76-10.75-51.11l3.78-12.07,1.22-3.35c1.05-.28,2.11-.52,3.19-.72.64-.12,1.27-.23,1.91-.31,2.6-.37,5.19-.48,7.77-.39,6.82.27,13.54,2.08,19.8,4.98.01,0,.02,0,.04.02,6.81,4.63,13.25,12.32,18.13,23.35h.18l15.66,39.79h24.9l-51.3-132.02ZM541.49,174.52c-6.91-4.11-12-10.71-15.92-16.67l-3.94-6.02c8.46-18.48,23.43-34.69,42.48-40.78l-22.62,63.47ZM581.05,106.41c-4.29-.4-8.55-.19-12.72.54l18.14-49.64c1.14,2.08,2.08,4.34,3.02,6.61l22.26,56.96c-9.94-9-20.41-13.49-30.71-14.47Z"/>
  <path class="cls-1" d="M111.78,219.17c1.32-.47,2.36-1.22,3.1-2.24.75-1.02,1.12-2.26,1.12-3.7,0-2.17-.74-3.86-2.23-5.07-1.49-1.21-3.59-1.81-6.31-1.81h-10.55v26.38h11c2.77,0,4.91-.62,6.43-1.87,1.52-1.25,2.28-3.04,2.28-5.39,0-1.65-.43-3.01-1.29-4.08-.86-1.07-2.05-1.81-3.57-2.21ZM99.92,208.8h7.11c3.97,0,5.95,1.56,5.95,4.68s-1.98,4.64-5.95,4.64h-7.11v-9.32ZM107.63,230.24h-7.71v-9.65h7.71c3.99,0,5.99,1.61,5.99,4.83s-2,4.83-5.99,4.83Z"/>
  <polygon class="cls-1" points="147.55 227.62 147.55 206.33 144.67 206.33 144.67 232.71 147.03 232.71 162.97 211.35 162.97 232.71 165.81 232.71 165.81 206.33 163.45 206.33 147.55 227.62"/>
  <path class="cls-1" d="M216.1,206.33h-17.51v6.81c0,4.14-.31,7.6-.94,10.38-.62,2.78-1.58,4.98-2.88,6.6h-2.58v8.46h2.77v-5.87h22.08v5.87h2.81v-8.46h-3.74v-23.8ZM212.99,230.13h-15c1.2-1.77,2.08-4,2.64-6.7.56-2.69.84-6.05.84-10.07v-4.45h11.53v21.22Z"/>
  <path class="cls-1" d="M255.46,206.33l-11.64,26.38h3.18l2.88-6.74h13.73l2.92,6.74h3.18l-11.64-26.38h-2.62ZM251.01,223.4l5.72-13.47h.08l5.72,13.47h-11.52Z"/>
  <path class="cls-1" d="M310.95,219.17c1.32-.47,2.36-1.22,3.1-2.24.75-1.02,1.12-2.26,1.12-3.7,0-2.17-.74-3.86-2.23-5.07-1.49-1.21-3.59-1.81-6.31-1.81h-10.55v26.38h11c2.77,0,4.91-.62,6.43-1.87,1.52-1.25,2.28-3.04,2.28-5.39,0-1.65-.43-3.01-1.29-4.08-.86-1.07-2.05-1.81-3.57-2.21ZM299.09,208.8h7.11c3.97,0,5.95,1.56,5.95,4.68s-1.98,4.64-5.95,4.64h-7.11v-9.32ZM306.79,230.24h-7.71v-9.65h7.71c3.99,0,5.99,1.61,5.99,4.83s-2,4.83-5.99,4.83Z"/>
  <polygon class="cls-1" points="362.73 218.01 346.9 218.01 346.9 206.33 343.83 206.33 343.83 232.71 346.9 232.71 346.9 220.66 362.73 220.66 362.73 232.71 365.8 232.71 365.8 206.33 362.73 206.33 362.73 218.01"/>
  <polygon class="cls-1" points="397.64 227.62 397.64 206.33 394.76 206.33 394.76 232.71 397.12 232.71 413.06 211.35 413.06 232.71 415.9 232.71 415.9 206.33 413.54 206.33 397.64 227.62"/>
  <polygon class="cls-1" points="466.67 206.33 463.57 206.33 463.57 230.06 447.96 230.06 447.96 206.33 444.9 206.33 444.9 232.71 467.61 232.71 467.61 238.59 470.41 238.59 470.41 230.06 466.67 230.06 466.67 206.33"/>
  <polygon class="cls-1" points="492.71 208.99 502.29 208.99 502.29 232.71 505.4 232.71 505.4 208.99 514.98 208.99 514.98 206.33 492.71 206.33 492.71 208.99"/>
  <path class="cls-1" d="M555.65,219.17c1.32-.47,2.36-1.22,3.1-2.24.75-1.02,1.12-2.26,1.12-3.7,0-2.17-.74-3.86-2.23-5.07-1.49-1.21-3.59-1.81-6.31-1.81h-10.55v26.38h11c2.77,0,4.91-.62,6.44-1.87,1.52-1.25,2.28-3.04,2.28-5.39,0-1.65-.43-3.01-1.29-4.08-.86-1.07-2.05-1.81-3.57-2.21ZM543.79,208.8h7.11c3.97,0,5.95,1.56,5.95,4.68s-1.98,4.64-5.95,4.64h-7.11v-9.32ZM551.5,230.24h-7.71v-9.65h7.71c3.99,0,5.99,1.61,5.99,4.83s-2,4.83-5.99,4.83Z"/>
  <path class="cls-1" d="M606.07,207.64c-1.81-1.1-3.96-1.65-6.45-1.65s-4.61.55-6.42,1.65c-1.81,1.1-3.2,2.66-4.17,4.68-.97,2.02-1.46,4.42-1.46,7.18s.49,5.16,1.48,7.18c.98,2.02,2.38,3.59,4.19,4.7,1.81,1.11,3.93,1.67,6.38,1.67s4.61-.56,6.42-1.67c1.81-1.11,3.21-2.68,4.21-4.71,1-2.03,1.5-4.43,1.5-7.2s-.49-5.16-1.48-7.17c-.99-2.01-2.38-3.56-4.19-4.66ZM606.16,227.47c-1.55,1.9-3.73,2.84-6.55,2.84s-4.93-.95-6.47-2.86c-1.55-1.91-2.32-4.56-2.32-7.95s.77-6.07,2.32-7.95c1.55-1.88,3.7-2.83,6.47-2.83s5,.94,6.55,2.83c1.55,1.88,2.32,4.53,2.32,7.95s-.77,6.07-2.32,7.97Z"/>
</svg>